<svg width="439" height="439" viewBox="0 0 439 439" fill="none" xmlns="http://www.w3.org/2000/svg">
<g id="Career vector&#39;s">
<g id="Background_Complete">
<path id="Vector" d="M85.8825 243.776H39.3713V418.896H85.8825V243.776Z" fill="#F5F5F5"/>
<path id="Vector_2" d="M337.892 302.01H291.381V417.928H337.892V302.01Z" fill="#F5F5F5"/>
<path id="Vector_3" d="M408.923 210.898H362.412V417.928H408.923V210.898Z" fill="#F5F5F5"/>
<path id="Vector_4" d="M259.097 218.413H212.586V417.928H259.097V218.413Z" fill="#F5F5F5"/>
<path id="Vector_5" d="M165.788 161.926H119.276V417.928H165.788V161.926Z" fill="#F5F5F5"/>
<g id="Group">
<g id="Group_2">
<g id="Group_3">
<path id="Vector_6" d="M362.412 47.5366C362.412 47.5366 362.187 47.7746 361.734 48.2259C361.272 48.6815 360.595 49.3488 359.706 50.2251C357.91 51.9837 355.267 54.572 351.851 57.9163C344.993 64.6058 335.037 74.3165 322.622 86.4268C297.753 110.631 263.035 144.421 223.612 182.79L223.437 182.959L223.281 182.772C215.496 173.447 207.362 163.7 199.067 153.764C176.795 127.065 155.67 101.742 136.922 79.2658L137.253 79.2473C115.207 112.387 96.5714 140.399 83.4417 160.135C76.869 169.987 71.6765 177.772 68.1215 183.101C66.3427 185.753 64.9756 187.794 64.0467 189.178C63.5849 189.86 63.2337 190.379 62.9922 190.736C62.7543 191.084 62.6252 191.257 62.6252 191.257C62.6252 191.257 62.7341 191.072 62.9633 190.717C63.1977 190.356 63.5401 189.831 63.9897 189.141C64.9054 187.749 66.2558 185.697 68.01 183.029C71.5422 177.684 76.7022 169.878 83.2328 159.998C96.329 140.239 114.916 112.195 136.907 79.0182L137.06 78.7864L137.239 79.0006C155.997 101.468 177.133 126.782 199.417 153.472C207.709 163.41 215.842 173.157 223.625 182.483L223.295 182.466C262.76 144.14 297.516 110.39 322.412 86.2125C334.868 74.1435 344.855 64.4662 351.736 57.7996C355.176 54.479 357.837 51.9099 359.646 50.1645C360.546 49.3014 361.233 48.6438 361.701 48.1951C362.167 47.7544 362.412 47.5366 362.412 47.5366Z" fill="#EBEBEB"/>
</g>
<path id="Vector_7" d="M137.081 87.7659C141.848 87.7659 145.712 83.9018 145.712 79.1351C145.712 74.3685 141.848 70.5044 137.081 70.5044C132.315 70.5044 128.451 74.3685 128.451 79.1351C128.451 83.9018 132.315 87.7659 137.081 87.7659Z" fill="#EBEBEB"/>
<path id="Vector_8" d="M65.9085 199.237C70.3162 197.424 72.4195 192.38 70.6063 187.972C68.793 183.564 63.75 181.46 59.3422 183.273C54.9345 185.086 52.8312 190.13 54.6445 194.538C56.4577 198.946 61.5008 201.05 65.9085 199.237Z" fill="#EBEBEB"/>
<path id="Vector_9" d="M231.982 184.001C232.743 179.296 229.546 174.864 224.841 174.103C220.135 173.342 215.704 176.539 214.943 181.245C214.182 185.95 217.379 190.382 222.084 191.143C226.789 191.904 231.22 188.707 231.982 184.001Z" fill="#EBEBEB"/>
</g>
<path id="Vector_10" d="M375.249 46.1481C376.295 41.4977 373.374 36.8797 368.723 35.8334C364.073 34.7872 359.455 37.7088 358.409 42.3592C357.362 47.0095 360.284 51.6275 364.934 52.6737C369.585 53.72 374.203 50.7984 375.249 46.1481Z" fill="#EBEBEB"/>
</g>
<g id="Group_4">
<g id="Group_5">
<path id="Vector_11" d="M50.903 61.3932C53.0146 60.1175 55.2614 59.1499 57.5802 58.4914L58.956 51.8818L70.1224 51.686L71.7292 58.2421C74.069 58.8189 76.3501 59.7066 78.5047 60.9077L84.1485 57.2087L92.183 64.9667L88.6851 70.7351C89.9617 72.8467 90.9284 75.0953 91.5869 77.4141L98.1956 78.789L98.3914 89.9554L91.8354 91.563C91.2585 93.9029 90.3708 96.1822 89.1697 98.3377L92.8688 103.981L85.1116 112.016L79.3423 108.518C77.2307 109.794 74.983 110.761 72.6642 111.42L71.2884 118.029L60.122 118.225L58.5144 111.668C56.1745 111.092 53.8943 110.204 51.7397 109.003L46.0959 112.702L38.0614 104.945L41.5593 99.1753C40.2836 97.0637 39.3151 94.816 38.6575 92.4972L32.0488 91.1223L31.853 79.9559L38.4099 78.3483C38.9868 76.0084 39.8753 73.7282 41.0755 71.5736L37.3765 65.9298L45.1337 57.8953L50.903 61.3932ZM56.8558 76.2683C52.2595 81.0288 52.393 88.613 57.1535 93.2093C61.914 97.8056 69.4982 97.6722 74.0936 92.9116C78.6891 88.1511 78.5565 80.567 73.796 75.9715C69.0354 71.3752 61.4513 71.5078 56.8558 76.2683Z" fill="#EBEBEB"/>
</g>
</g>
<g id="Group_6">
<g id="Group_7">
<path id="Vector_12" d="M235.2 41.2189C237.824 39.6332 240.617 38.4304 243.498 37.6121L245.208 29.3975L259.086 29.1543L261.084 37.303C263.993 38.0195 266.827 39.1231 269.505 40.6157L276.519 36.0176L286.506 45.6598L282.158 52.8296C283.744 55.4548 284.946 58.2495 285.764 61.1302L293.977 62.8396L294.221 76.7182L286.073 78.7165C285.356 81.6245 284.253 84.4578 282.76 87.1365L287.357 94.1518L277.717 104.138L270.546 99.7903C267.922 101.376 265.127 102.578 262.246 103.396L260.537 111.611L246.658 111.854L244.661 103.704C241.753 102.988 238.919 101.884 236.24 100.392L229.226 104.99L219.239 95.3485L223.587 88.1778C222.001 85.5535 220.799 82.7597 219.98 79.8781L211.767 78.1686L211.523 64.2901L219.672 62.2918C220.389 59.3838 221.493 56.5497 222.985 53.8717L218.388 46.8574L228.029 36.871L235.2 41.2189ZM242.598 59.7078C236.885 65.6247 237.05 75.0509 242.967 80.7631C248.884 86.4754 258.31 86.3095 264.023 80.3926C269.734 74.4758 269.57 65.0496 263.653 59.3373C257.736 53.6259 248.31 53.7919 242.598 59.7078Z" fill="#F5F5F5"/>
</g>
</g>
<g id="Group_8">
<g id="Group_9">
<path id="Vector_13" d="M104.296 33.8163C105.401 33.1482 106.577 32.6425 107.79 32.2974L108.51 28.8381L114.355 28.7354L115.196 32.1666C116.421 32.4686 117.615 32.9331 118.743 33.5617L121.696 31.6257L125.902 35.6865L124.071 38.7059C124.739 39.8113 125.246 40.9878 125.59 42.2012L129.049 42.9212L129.152 48.766L125.72 49.6072C125.418 50.832 124.953 52.0252 124.325 53.1534L126.261 56.1079L122.201 60.3135L119.182 58.4829C118.076 59.151 116.9 59.6568 115.686 60.0018L114.966 63.4611L109.121 63.5639L108.28 60.1318C107.055 59.8297 105.862 59.3653 104.734 58.7366L101.78 60.6726L97.5748 56.6118L99.4055 53.5924C98.7373 52.487 98.2307 51.3105 97.8865 50.0971L94.4272 49.3771L94.3245 43.5323L97.7566 42.6912C98.0586 41.4664 98.5231 40.2731 99.1517 39.1449L97.2157 36.1913L101.276 31.9857L104.296 33.8163ZM107.411 41.6024C105.005 44.0942 105.076 48.0636 107.566 50.4694C110.058 52.8751 114.028 52.8048 116.433 50.3131C118.839 47.8213 118.77 43.8519 116.277 41.4462C113.786 39.0413 109.817 39.1107 107.411 41.6024Z" fill="#F5F5F5"/>
</g>
</g>
<g id="Group_10">
<g id="Group_11">
<path id="Vector_14" d="M376.548 95.1754C378.042 94.272 379.633 93.588 381.274 93.1209L382.248 88.4429L390.152 88.3042L391.29 92.9453C392.947 93.3536 394.561 93.9822 396.086 94.8321L400.081 92.2139L405.768 97.7049L403.292 101.789C404.195 103.284 404.88 104.875 405.345 106.516L410.023 107.489L410.162 115.394L405.521 116.532C405.113 118.188 404.484 119.802 403.634 121.328L406.252 125.322L400.761 131.01L396.678 128.534C395.183 129.438 393.592 130.122 391.951 130.588L390.977 135.266L383.073 135.405L381.935 130.763C380.279 130.355 378.665 129.726 377.14 128.877L373.145 131.495L367.457 126.004L369.933 121.92C369.03 120.425 368.345 118.834 367.878 117.193L363.2 116.219L363.062 108.316L367.703 107.178C368.111 105.522 368.74 103.908 369.59 102.382L366.972 98.3872L372.463 92.6995L376.548 95.1754ZM380.761 105.705C377.508 109.075 377.602 114.444 380.972 117.697C384.342 120.95 389.711 120.856 392.964 117.486C396.217 114.117 396.123 108.748 392.753 105.495C389.382 102.242 384.014 102.336 380.761 105.705Z" fill="#F5F5F5"/>
</g>
</g>
</g>
<g id="Floor">
<g id="Group_12">
<path id="Vector_15" d="M424.251 419.126C424.251 419.253 332.573 419.354 219.511 419.354C106.408 419.354 14.7505 419.252 14.7505 419.126C14.7505 419 106.408 418.898 219.511 418.898C332.573 418.898 424.251 419 424.251 419.126Z" fill="#263238"/>
</g>
</g>
<g id="Briefcase">
<g id="Group_13">
<g id="Group_14">
<g id="Group_15">
<g id="Group_16">
<path id="Vector_16" d="M282.804 419.127H354.87C356.247 419.127 357.334 417.959 357.238 416.586L353.641 365.585C353.553 364.343 352.521 363.379 351.276 363.378L285.117 363.284C283.847 363.282 282.799 364.282 282.742 365.551L280.432 416.646C280.371 417.998 281.451 419.127 282.804 419.127Z" fill="#263238"/>
</g>
</g>
</g>
<g id="Group_17">
<g id="Group_18">
<g id="Group_19">
<g id="Group_20">
<path id="Vector_17" d="M292.746 419.127C292.857 419.127 292.947 406.647 292.947 391.255C292.947 375.858 292.857 363.38 292.746 363.38C292.636 363.38 292.545 375.857 292.545 391.255C292.545 406.647 292.635 419.127 292.746 419.127Z" fill="#455A64"/>
</g>
</g>
</g>
</g>
<g id="Group_21">
<g id="Group_22">
<g id="Group_23">
<g id="Group_24">
<path id="Vector_18" d="M293.599 364.703C293.592 364.706 293.629 364.776 293.707 364.907C293.799 365.056 293.915 365.246 294.06 365.483C294.392 366.008 294.858 366.74 295.45 367.672C296.676 369.562 298.455 372.297 300.856 375.537C303.282 378.747 306.326 382.517 310.424 385.966C312.464 387.693 314.779 389.305 317.341 390.694C319.91 392.049 322.807 393.129 325.917 393.379C329.031 393.64 332.07 392.939 334.765 391.846C337.467 390.738 339.89 389.249 341.968 387.56C346.135 384.159 348.885 380.048 350.568 376.387C352.263 372.703 352.866 369.436 353.115 367.203C353.164 366.642 353.221 366.143 353.245 365.709C353.251 365.282 353.255 364.916 353.259 364.611C353.259 364.332 353.259 364.11 353.259 363.936C353.256 363.784 353.252 363.706 353.245 363.706C353.238 363.706 353.229 363.784 353.217 363.936C353.207 364.109 353.194 364.332 353.177 364.609C353.162 364.914 353.145 365.278 353.125 365.702C353.088 366.133 353.02 366.628 352.958 367.186C352.663 369.401 352.022 372.633 350.309 376.268C348.609 379.88 345.861 383.93 341.734 387.273C339.675 388.933 337.281 390.395 334.617 391.482C331.959 392.552 328.983 393.234 325.948 392.979C322.912 392.736 320.064 391.68 317.523 390.345C314.988 388.977 312.691 387.387 310.661 385.683C306.584 382.277 303.531 378.546 301.083 375.366C298.659 372.156 296.845 369.448 295.58 367.585C294.961 366.671 294.475 365.952 294.127 365.438C293.968 365.21 293.842 365.027 293.742 364.884C293.653 364.76 293.605 364.699 293.599 364.703Z" fill="#455A64"/>
</g>
</g>
</g>
</g>
<g id="Group_25">
<g id="Group_26">
<g id="Group_27">
<path id="Vector_19" d="M323.423 393.425C323.423 395.251 324.903 396.733 326.73 396.733C328.557 396.733 330.037 395.252 330.037 393.425C330.037 391.599 328.556 390.118 326.73 390.118C324.904 390.118 323.423 391.599 323.423 393.425Z" fill="#455A64"/>
</g>
</g>
</g>
<g id="Group_28">
<g id="Group_29">
<g id="Group_30">
<path id="Vector_20" d="M304.071 352.994C305.454 351.713 307.4 351.238 309.276 351.053C313.802 350.603 318.784 351.544 322.739 353.79C326.694 356.036 329.605 359.777 331.539 363.894L328.94 366.613C327.879 362.333 325.507 358.607 321.828 356.175C318.149 353.743 314.239 352.628 309.885 353.328C308.884 353.489 307.469 353.863 306.639 354.444C304.94 355.633 304.679 357.016 304.979 358.78C305.422 361.388 306.078 362.522 307.194 363.921C305.281 363.965 304.834 363.976 302.921 364.021C302.438 362.136 301.952 360.223 301.986 358.278C302.022 356.333 302.643 354.316 304.071 352.994Z" fill="#263238"/>
</g>
</g>
</g>
</g>
</g>
<g id="Books">
<g id="Group_31">
<g id="Group_32">
<g id="Group_33">
<path id="Vector_21" d="M231.708 392.366H204.387V403.13H231.708V392.366Z" fill="#FAFAFA"/>
</g>
<g id="Group_34">
<path id="Vector_22" d="M289.053 390.518H203.249V392.773H289.053V390.518Z" fill="#455A64"/>
</g>
<g id="Group_35">
<path id="Vector_23" d="M289.053 402.65H203.647V404.905H289.053V402.65Z" fill="#455A64"/>
</g>
<g id="Group_36">
<path id="Vector_24" d="M231.708 391.054L231.837 404.475H289.052V391.054H231.708Z" fill="#455A64"/>
</g>
<g id="Group_37">
<path id="Vector_25" d="M245.614 397.752C245.614 399.597 244.229 401.092 242.521 401.092C240.813 401.092 239.428 399.597 239.428 397.752C239.428 395.907 240.813 394.412 242.521 394.412C244.23 394.412 245.614 395.907 245.614 397.752Z" fill="#263238"/>
<path id="Vector_26" d="M242.52 401.571C240.551 401.571 238.948 399.857 238.948 397.751C238.948 395.645 240.551 393.932 242.52 393.932C244.49 393.932 246.093 395.645 246.093 397.751C246.094 399.857 244.49 401.571 242.52 401.571ZM242.52 394.892C241.079 394.892 239.908 396.175 239.908 397.752C239.908 399.329 241.079 400.611 242.52 400.611C243.961 400.611 245.133 399.329 245.133 397.752C245.133 396.175 243.961 394.892 242.52 394.892Z" fill="#E0E0E0"/>
</g>
<g id="Group_38">
<g id="Group_39">
<path id="Vector_27" d="M229.655 400.492C229.655 400.63 224.041 400.742 217.118 400.742C210.192 400.742 204.58 400.631 204.58 400.492C204.58 400.354 210.192 400.243 217.118 400.243C224.041 400.242 229.655 400.354 229.655 400.492Z" fill="#263238"/>
</g>
</g>
<g id="Group_40">
<g id="Group_41">
<path id="Vector_28" d="M229.655 398.616C229.655 398.754 224.041 398.867 217.118 398.867C210.192 398.867 204.58 398.755 204.58 398.616C204.58 398.479 210.192 398.366 217.118 398.366C224.041 398.366 229.655 398.479 229.655 398.616Z" fill="#263238"/>
</g>
</g>
<g id="Group_42">
<g id="Group_43">
<path id="Vector_29" d="M229.655 396.741C229.655 396.879 224.041 396.992 217.118 396.992C210.192 396.992 204.58 396.88 204.58 396.741C204.58 396.604 210.192 396.491 217.118 396.491C224.041 396.492 229.655 396.604 229.655 396.741Z" fill="#263238"/>
</g>
</g>
<g id="Group_44">
<g id="Group_45">
<path id="Vector_30" d="M229.655 394.866C229.655 395.004 224.041 395.117 217.118 395.117C210.192 395.117 204.58 395.004 204.58 394.866C204.58 394.729 210.192 394.616 217.118 394.616C224.041 394.616 229.655 394.729 229.655 394.866Z" fill="#263238"/>
</g>
</g>
<g id="Group_46">
<g id="Group_47">
<path id="Vector_31" d="M282.708 393.909H256.925V401.092H282.708V393.909Z" fill="white"/>
</g>
<g id="Group_48">
<g id="Group_49">
<path id="Vector_32" d="M260.941 400.361C260.803 400.361 260.69 399.08 260.69 397.5C260.69 395.919 260.802 394.638 260.941 394.638C261.079 394.638 261.191 395.919 261.191 397.5C261.19 399.08 261.079 400.361 260.941 400.361Z" fill="#E0E0E0"/>
</g>
</g>
<g id="Group_50">
<g id="Group_51">
<path id="Vector_33" d="M264.35 400.361C264.212 400.361 264.1 399.08 264.1 397.5C264.1 395.919 264.211 394.638 264.35 394.638C264.488 394.638 264.599 395.919 264.599 397.5C264.599 399.08 264.488 400.361 264.35 400.361Z" fill="#E0E0E0"/>
</g>
</g>
<g id="Group_52">
<g id="Group_53">
<path id="Vector_34" d="M267.759 400.361C267.621 400.361 267.509 399.08 267.509 397.5C267.509 395.919 267.62 394.638 267.759 394.638C267.897 394.638 268.008 395.919 268.008 397.5C268.008 399.08 267.897 400.361 267.759 400.361Z" fill="#E0E0E0"/>
</g>
</g>
<g id="Group_54">
<g id="Group_55">
<path id="Vector_35" d="M271.168 400.361C271.031 400.361 270.918 399.08 270.918 397.5C270.918 395.919 271.03 394.638 271.168 394.638C271.306 394.638 271.419 395.919 271.419 397.5C271.418 399.08 271.306 400.361 271.168 400.361Z" fill="#E0E0E0"/>
</g>
</g>
<g id="Group_56">
<g id="Group_57">
<path id="Vector_36" d="M274.578 400.361C274.44 400.361 274.327 399.08 274.327 397.5C274.327 395.919 274.439 394.638 274.578 394.638C274.715 394.638 274.828 395.919 274.828 397.5C274.827 399.08 274.715 400.361 274.578 400.361Z" fill="#E0E0E0"/>
</g>
</g>
<g id="Group_58">
<g id="Group_59">
<path id="Vector_37" d="M277.987 400.361C277.849 400.361 277.737 399.08 277.737 397.5C277.737 395.919 277.848 394.638 277.987 394.638C278.125 394.638 278.237 395.919 278.237 397.5C278.236 399.08 278.125 400.361 277.987 400.361Z" fill="#E0E0E0"/>
</g>
</g>
</g>
</g>
<g id="Group_60">
<g id="Group_61">
<path id="Vector_38" d="M235.337 406.357H208.017V417.121H235.337V406.357Z" fill="#FAFAFA"/>
</g>
<g id="Group_62">
<path id="Vector_39" d="M292.683 404.509H206.879V406.763H292.683V404.509Z" fill="#5B71C8"/>
</g>
<g id="Group_63">
<path id="Vector_40" d="M292.683 416.641H207.276V418.896H292.683V416.641Z" fill="#5B71C8"/>
</g>
<g id="Group_64">
<path id="Vector_41" d="M235.337 405.045L235.466 418.467H292.683V405.045H235.337Z" fill="#5B71C8"/>
</g>
<g id="Group_65">
<path id="Vector_42" d="M249.243 411.742C249.243 413.586 247.859 415.082 246.151 415.082C244.442 415.082 243.058 413.586 243.058 411.742C243.058 409.897 244.442 408.402 246.151 408.402C247.859 408.403 249.243 409.898 249.243 411.742Z" fill="#263238"/>
<path id="Vector_43" d="M246.151 415.562C244.18 415.562 242.578 413.848 242.578 411.742C242.578 409.636 244.18 407.923 246.151 407.923C248.121 407.923 249.723 409.636 249.723 411.742C249.723 413.848 248.121 415.562 246.151 415.562ZM246.151 408.882C244.71 408.882 243.538 410.165 243.538 411.742C243.538 413.319 244.71 414.602 246.151 414.602C247.592 414.602 248.764 413.319 248.764 411.742C248.764 410.165 247.591 408.882 246.151 408.882Z" fill="#E0E0E0"/>
</g>
<g id="Group_66">
<g id="Group_67">
<path id="Vector_44" d="M233.285 414.482C233.285 414.62 227.671 414.732 220.748 414.732C213.822 414.732 208.21 414.621 208.21 414.482C208.21 414.344 213.822 414.232 220.748 414.232C227.671 414.233 233.285 414.344 233.285 414.482Z" fill="#263238"/>
</g>
</g>
<g id="Group_68">
<g id="Group_69">
<path id="Vector_45" d="M233.285 412.608C233.285 412.746 227.671 412.858 220.748 412.858C213.822 412.858 208.21 412.746 208.21 412.608C208.21 412.47 213.822 412.357 220.748 412.357C227.671 412.357 233.285 412.47 233.285 412.608Z" fill="#263238"/>
</g>
</g>
<g id="Group_70">
<g id="Group_71">
<path id="Vector_46" d="M233.285 410.732C233.285 410.87 227.671 410.982 220.748 410.982C213.822 410.982 208.21 410.87 208.21 410.732C208.21 410.594 213.822 410.482 220.748 410.482C227.671 410.482 233.285 410.594 233.285 410.732Z" fill="#263238"/>
</g>
</g>
<g id="Group_72">
<g id="Group_73">
<path id="Vector_47" d="M233.285 408.857C233.285 408.995 227.671 409.107 220.748 409.107C213.822 409.107 208.21 408.995 208.21 408.857C208.21 408.718 213.822 408.606 220.748 408.606C227.671 408.607 233.285 408.719 233.285 408.857Z" fill="#263238"/>
</g>
</g>
<g id="Group_74">
<g id="Group_75">
<path id="Vector_48" d="M286.338 407.899H260.554V415.082H286.338V407.899Z" fill="white"/>
</g>
<g id="Group_76">
<g id="Group_77">
<path id="Vector_49" d="M264.57 414.352C264.432 414.352 264.32 413.071 264.32 411.491C264.32 409.91 264.431 408.629 264.57 408.629C264.708 408.629 264.82 409.91 264.82 411.491C264.82 413.071 264.708 414.352 264.57 414.352Z" fill="#E0E0E0"/>
</g>
</g>
<g id="Group_78">
<g id="Group_79">
<path id="Vector_50" d="M267.979 414.352C267.842 414.352 267.729 413.071 267.729 411.491C267.729 409.91 267.842 408.629 267.979 408.629C268.117 408.629 268.23 409.91 268.23 411.491C268.229 413.071 268.117 414.352 267.979 414.352Z" fill="#E0E0E0"/>
</g>
</g>
<g id="Group_80">
<g id="Group_81">
<path id="Vector_51" d="M271.389 414.352C271.251 414.352 271.138 413.071 271.138 411.491C271.138 409.91 271.251 408.629 271.389 408.629C271.527 408.629 271.638 409.91 271.638 411.491C271.638 413.071 271.527 414.352 271.389 414.352Z" fill="#E0E0E0"/>
</g>
</g>
<g id="Group_82">
<g id="Group_83">
<path id="Vector_52" d="M274.798 414.352C274.66 414.352 274.548 413.071 274.548 411.491C274.548 409.91 274.659 408.629 274.798 408.629C274.936 408.629 275.047 409.91 275.047 411.491C275.047 413.071 274.936 414.352 274.798 414.352Z" fill="#E0E0E0"/>
</g>
</g>
<g id="Group_84">
<g id="Group_85">
<path id="Vector_53" d="M278.207 414.352C278.069 414.352 277.957 413.071 277.957 411.491C277.957 409.91 278.069 408.629 278.207 408.629C278.345 408.629 278.457 409.91 278.457 411.491C278.457 413.071 278.345 414.352 278.207 414.352Z" fill="#E0E0E0"/>
</g>
</g>
<g id="Group_86">
<g id="Group_87">
<path id="Vector_54" d="M281.616 414.352C281.479 414.352 281.366 413.071 281.366 411.491C281.366 409.91 281.478 408.629 281.616 408.629C281.754 408.629 281.867 409.91 281.867 411.491C281.867 413.071 281.754 414.352 281.616 414.352Z" fill="#E0E0E0"/>
</g>
</g>
</g>
</g>
</g>
</g>
<g id="Speech_Bubble">
<g id="Group_88">
<g id="Group_89">
<g id="Group_90">
<g id="Group_91">
<g id="Group_92">
<g id="Group_93">
<g id="Group_94">
<g id="Group_95">
<g id="Group_96">
<g id="Group_97">
<g id="Group_98">
<g id="Group_99">
<g id="Group_100">
<g id="Group_101">
<g id="Group_102">
<g id="Group_103">
<g id="Group_104">
<path id="Vector_55" d="M179.533 148.27L172.462 146.853C167.708 149.521 162.097 150.813 156.186 150.204C142.245 148.767 131.487 136.73 131.59 122.715C131.709 106.522 145.705 93.9013 161.932 95.5844C175.709 97.0129 186.392 108.782 186.507 122.631C186.564 129.504 184.116 135.75 180.053 140.57L180.066 140.561L179.533 148.27Z" fill="white"/>
</g>
</g>
</g>
</g>
</g>
<g id="Group_105">
<g id="Group_106">
<g id="Group_107">
<g id="Group_108">
<g id="Group_109">
<g id="Group_110">
<path id="Vector_56" d="M179.533 148.27C179.533 148.27 179.534 148.086 179.551 147.748C179.569 147.392 179.597 146.897 179.631 146.256C179.708 144.937 179.82 143.025 179.965 140.555L180.123 140.644C180.123 140.644 180.115 140.65 180.11 140.653C180.065 140.685 180.002 140.674 179.97 140.629C179.943 140.591 179.948 140.539 179.976 140.506C182.134 137.897 184.608 133.97 185.727 128.68C186.293 126.051 186.477 123.114 186.169 120.021C185.835 116.933 184.924 113.7 183.344 110.599C181.751 107.509 179.471 104.569 176.567 102.119C173.668 99.6786 170.15 97.6768 166.2 96.6495C162.271 95.5915 157.969 95.4071 153.747 96.221C149.515 97.0077 145.419 98.9578 141.943 101.777C140.144 103.162 138.649 104.862 137.265 106.595C136.639 107.511 135.997 108.417 135.449 109.368L134.684 110.824L134.307 111.55L134.005 112.309C132.31 116.315 131.667 120.616 131.909 124.718C132.13 128.835 133.431 132.712 135.278 136.059C137.139 139.41 139.613 142.231 142.364 144.398C145.126 146.558 148.148 148.073 151.131 148.994C151.888 149.188 152.631 149.38 153.363 149.567C154.098 149.738 154.839 149.812 155.557 149.936C156.997 150.161 158.408 150.203 159.753 150.183C165.169 150.071 169.481 148.381 172.415 146.77C172.435 146.759 172.46 146.755 172.482 146.76C174.73 147.235 176.479 147.604 177.689 147.861C178.273 147.988 178.727 148.086 179.057 148.157C179.366 148.224 179.533 148.27 179.533 148.27C179.533 148.27 179.388 148.252 179.085 148.199C178.76 148.139 178.31 148.056 177.731 147.951C176.502 147.718 174.725 147.382 172.442 146.95L172.508 146.94C169.576 148.602 165.238 150.349 159.759 150.5C158.398 150.53 156.971 150.495 155.511 150.277C154.783 150.156 154.032 150.085 153.286 149.916C152.545 149.729 151.789 149.539 151.022 149.347C147.993 148.43 144.921 146.904 142.109 144.724C139.308 142.535 136.786 139.679 134.884 136.277C132.998 132.882 131.667 128.941 131.434 124.751C131.18 120.578 131.829 116.2 133.551 112.118L133.859 111.346L134.242 110.606C134.501 110.114 134.76 109.619 135.02 109.123C135.577 108.155 136.229 107.231 136.867 106.3C138.275 104.534 139.798 102.803 141.629 101.392C145.168 98.5214 149.342 96.5389 153.652 95.7399C157.951 94.9146 162.326 95.1077 166.325 96.1921C170.342 97.2448 173.918 99.2888 176.857 101.777C179.802 104.276 182.108 107.269 183.713 110.412C185.305 113.566 186.215 116.851 186.538 119.982C186.836 123.121 186.63 126.091 186.04 128.748C184.872 134.094 182.336 138.037 180.13 140.636L179.995 140.489C180 140.485 180.007 140.48 180.007 140.48C180.053 140.449 180.115 140.459 180.147 140.505C180.16 140.524 180.166 140.549 180.165 140.571C179.967 143.064 179.813 144.995 179.708 146.327C179.655 146.955 179.613 147.441 179.583 147.791C179.555 148.114 179.533 148.27 179.533 148.27Z" fill="#263238"/>
</g>
</g>
</g>
</g>
</g>
</g>
</g>
</g>
</g>
</g>
</g>
</g>
</g>
</g>
</g>
</g>
</g>
<g id="Group_111">
<g id="Group_112">
<g id="Group_113">
<g id="Group_114">
<g id="Group_115">
<g id="Group_116">
<g id="Group_117">
<g id="Group_118">
<g id="Group_119">
<g id="Group_120">
<g id="Group_121">
<g id="Group_122">
<g id="Group_123">
<path id="Vector_57" d="M146.873 124.67L150.312 120.989L157.387 126.859L170.427 113.428L173.854 116.877L157.113 133.744L146.873 124.67Z" fill="#5B71C8"/>
</g>
</g>
</g>
</g>
</g>
</g>
</g>
</g>
</g>
</g>
</g>
</g>
</g>
</g>
</g>
<g id="Character">
<g id="Group_124">
<g id="Group_125">
<path id="Vector_58" d="M370.265 102.115H347.913L282.688 141.371C282.932 141.738 290.631 147.305 300.687 154.495L206.234 328.407L127.186 293.496L57.1929 419.295H95.4385L143.666 331.199L216.207 364.803L246.957 368.473L330.197 175.486C340.657 182.901 348.691 188.578 348.691 188.578H371.044C371.044 188.578 364.525 133.87 364.525 133.435C364.525 133.001 370.265 102.115 370.265 102.115Z" fill="#5B71C8"/>
<path id="Vector_59" opacity="0.3" d="M370.265 102.115H347.913L282.688 141.371C282.932 141.738 290.631 147.305 300.687 154.495L206.234 328.407L127.186 293.496L57.1929 419.295H95.4385L143.666 331.199L216.207 364.803L246.957 368.473L330.197 175.486C340.657 182.901 348.691 188.578 348.691 188.578H371.044C371.044 188.578 364.525 133.87 364.525 133.435C364.525 133.001 370.265 102.115 370.265 102.115Z" fill="black"/>
<path id="Vector_60" d="M79.8215 419.295L150.095 292.418L228.862 328.407L330.443 141.371L360.688 157.26L246.957 368.473L166.295 331.199L118.067 419.295H79.8215Z" fill="#5B71C8"/>
<path id="Vector_61" d="M305.04 141.371C305.76 142.451 371.045 188.578 371.045 188.578L370.266 102.115L305.04 141.371Z" fill="#5B71C8"/>
<g id="Group_126">
<path id="Vector_62" d="M305.04 141.371C305.04 141.497 300.036 141.599 293.865 141.599C287.692 141.599 282.689 141.496 282.689 141.371C282.689 141.245 287.692 141.143 293.865 141.143C300.035 141.143 305.04 141.245 305.04 141.371Z" fill="#263238"/>
</g>
<g id="Group_127">
<path id="Vector_63" d="M322.502 154.86C322.502 154.987 317.498 155.088 311.326 155.088C305.153 155.088 300.15 154.986 300.15 154.86C300.15 154.734 305.153 154.632 311.326 154.632C317.498 154.631 322.502 154.734 322.502 154.86Z" fill="#263238"/>
</g>
</g>
<g id="Group_128">
<g id="Group_129">
<g id="Group_130">
<path id="Vector_64" d="M154.632 233.17C154.632 233.17 153.276 233.76 153.064 231.95C152.852 230.138 156.626 226.368 157.834 225.171C159.041 223.973 160.766 224.23 162.297 224.572C163.829 224.913 170.095 225.545 172.174 226.879C174.253 228.214 177.436 234.908 178.1 235.226C178.763 235.544 198.313 236.563 198.313 236.563L197.472 252.585C197.472 252.585 178.284 248.929 174.484 246.552C170.684 244.176 171.183 243.229 170.103 241.012C169.023 238.795 167.863 236.441 167.863 236.441L166.067 236.144L163.187 237.733C163.187 237.733 162.847 241.8 159.997 241.696L158.6 240.96C158.6 240.96 157.669 242.038 156.607 240.372C155.546 238.707 155.747 238.396 155.747 238.396C155.747 238.396 154.629 239.778 153.422 238.064C152.214 236.35 154.632 233.17 154.632 233.17Z" fill="#AE7461"/>
<g id="Group_131">
<path id="Vector_65" d="M175.694 239.972C175.696 239.984 175.624 240.007 175.482 240.038C175.341 240.073 175.125 240.1 174.845 240.101C174.288 240.106 173.444 239.969 172.544 239.447C171.649 238.938 170.71 238.023 170.108 236.745C169.487 235.475 169.183 233.913 169.097 232.256L169.407 232.445C168.122 233.04 166.608 233.422 165.023 233.477C163.91 233.519 162.819 233.395 161.801 233.138C161.315 232.994 160.752 232.919 160.328 232.453C160.101 232.232 160.049 231.771 160.278 231.509C160.487 231.25 160.751 231.158 160.969 231.065C162.728 230.352 164.347 229.797 165.718 229.379C167.09 228.959 168.216 228.676 168.997 228.498C169.78 228.322 170.218 228.251 170.225 228.281C170.233 228.314 169.809 228.443 169.043 228.67C168.277 228.9 167.169 229.229 165.817 229.687C164.465 230.142 162.869 230.725 161.13 231.455C160.917 231.541 160.715 231.64 160.621 231.768C160.533 231.894 160.538 232.032 160.661 232.171C160.916 232.469 161.425 232.575 161.911 232.704C162.89 232.945 163.938 233.062 165.008 233.02C166.532 232.967 167.987 232.607 169.226 232.046L169.522 231.912L169.536 232.235C169.608 233.858 169.882 235.366 170.45 236.585C171 237.814 171.854 238.691 172.689 239.211C173.525 239.74 174.317 239.914 174.853 239.954C175.39 239.993 175.689 239.936 175.694 239.972Z" fill="#6F4439"/>
</g>
<g id="Group_132">
<path id="Vector_66" d="M165.796 228.985C165.833 229.032 165.136 229.409 163.951 229.344C163.368 229.338 162.683 229.239 161.958 229.288C161.218 229.321 160.527 229.635 159.957 230.294C158.769 231.62 157.348 232.497 156.278 232.944C155.2 233.399 154.477 233.491 154.466 233.441C154.445 233.37 155.129 233.166 156.141 232.651C157.152 232.137 158.464 231.273 159.627 229.977C159.935 229.659 160.277 229.334 160.697 229.15C161.106 228.955 161.538 228.884 161.934 228.867C162.73 228.84 163.405 228.976 163.971 229.021C165.102 229.164 165.77 228.92 165.796 228.985Z" fill="#6F4439"/>
</g>
<g id="Group_133">
<path id="Vector_67" d="M161.768 233.254C161.875 233.29 161.084 235.092 159.276 236.63C157.481 238.185 155.581 238.693 155.561 238.581C155.507 238.45 157.262 237.773 158.978 236.283C160.711 234.814 161.647 233.181 161.768 233.254Z" fill="#6F4439"/>
</g>
<g id="Group_134">
<path id="Vector_68" d="M162.472 235.712C162.586 235.724 162.329 237.302 161.185 238.851C160.054 240.41 158.628 241.133 158.582 241.027C158.503 240.913 159.748 240.058 160.815 238.581C161.9 237.117 162.339 235.671 162.472 235.712Z" fill="#6F4439"/>
</g>
</g>
<path id="Vector_69" d="M221.515 201.943L204.021 233.51L176.869 233.043L174.828 249.349L202.847 256.218L214.384 243.551L221.515 201.943Z" fill="#E0E0E0"/>
<g id="Group_135">
<path id="Vector_70" d="M206.204 238.866C206.069 238.878 205.9 237.581 205.294 236.115C204.702 234.642 203.915 233.596 204.021 233.51C204.102 233.427 205.091 234.39 205.717 235.942C206.355 237.489 206.321 238.869 206.204 238.866Z" fill="#263238"/>
</g>
</g>
<g id="Group_136">
<g id="Group_137">
<g id="Group_138">
<g id="Group_139">
<g id="Group_140">
<g id="Group_141">
<g id="Group_142">
<g id="Group_143">
<path id="Vector_71" d="M228.168 146.07C225.954 146.365 223.649 144.776 223.134 142.604C222.619 140.431 223.967 137.978 226.077 137.247C224.672 135.858 224.283 133.547 225.159 131.775C226.033 130.004 228.106 128.907 230.063 129.179C230.109 127.229 231.239 125.339 232.936 124.377C234.632 123.415 236.835 123.414 238.533 124.375C240.652 122.488 244.125 122.356 246.383 124.074C248.27 123.689 250.354 124.66 251.275 126.352C252.195 128.045 251.877 130.322 250.528 131.697" fill="#263238"/>
</g>
</g>
</g>
</g>
</g>
<g id="Group_144">
<g id="Group_145">
<g id="Group_146">
<g id="Group_147">
<path id="Vector_72" d="M247.444 128.553L246.443 128.572C236.369 128.767 228.133 136.664 227.518 146.721C226.946 156.075 226.434 166.417 226.593 171.426C226.922 181.798 237.33 183.211 237.33 183.211L236.694 195.692L237.925 205.205L261.858 194.424L263.21 149.176C263.93 138.387 258.25 128.974 247.444 128.553Z" fill="#AE7461"/>
</g>
</g>
<g id="Group_148">
<g id="Group_149">
<g id="Group_150">
<g id="Group_151">
<g id="Group_152">
<g id="Group_153">
<g id="Group_154">
<g id="Group_155">
<path id="Vector_73" d="M237.244 183.198C237.244 183.198 243.876 183.468 250.76 178.956C250.76 178.956 247.545 186.989 237.175 186.256L237.244 183.198Z" fill="#6F4439"/>
</g>
</g>
</g>
</g>
</g>
</g>
</g>
</g>
<g id="Group_156">
<g id="Group_157">
<g id="Group_158">
<g id="Group_159">
<g id="Group_160">
<g id="Group_161">
<g id="Group_162">
<g id="Group_163">
<g id="Group_164">
<g id="Group_165">
<g id="Group_166">
<path id="Vector_74" d="M230.886 157.296C230.874 158.079 231.526 158.735 232.343 158.763C233.159 158.791 233.833 158.181 233.845 157.398C233.857 156.614 233.205 155.958 232.389 155.93C231.572 155.902 230.898 156.514 230.886 157.296Z" fill="#263238"/>
</g>
</g>
</g>
</g>
</g>
</g>
</g>
</g>
</g>
</g>
</g>
<g id="Group_167">
<g id="Group_168">
<g id="Group_169">
<g id="Group_170">
<g id="Group_171">
<g id="Group_172">
<g id="Group_173">
<g id="Group_174">
<g id="Group_175">
<g id="Group_176">
<g id="Group_177">
<g id="Group_178">
<path id="Vector_75" d="M229.846 151.754C230.033 151.943 231.14 151.091 232.734 151.064C234.326 151.014 235.512 151.813 235.682 151.614C235.765 151.525 235.571 151.18 235.055 150.82C234.546 150.46 233.683 150.117 232.69 150.141C231.697 150.165 230.869 150.547 230.396 150.931C229.913 151.316 229.754 151.669 229.846 151.754Z" fill="#263238"/>
</g>
</g>
</g>
</g>
</g>
</g>
</g>
</g>
</g>
</g>
</g>
</g>
<g id="Group_179">
<g id="Group_180">
<g id="Group_181">
<g id="Group_182">
<g id="Group_183">
<g id="Group_184">
<g id="Group_185">
<g id="Group_186">
<g id="Group_187">
<g id="Group_188">
<g id="Group_189">
<path id="Vector_76" d="M244.388 156.965C244.376 157.747 245.028 158.404 245.845 158.431C246.661 158.459 247.334 157.849 247.347 157.066C247.359 156.283 246.707 155.626 245.89 155.598C245.074 155.57 244.4 156.181 244.388 156.965Z" fill="#263238"/>
</g>
</g>
</g>
</g>
</g>
</g>
</g>
</g>
</g>
</g>
</g>
<g id="Group_190">
<g id="Group_191">
<g id="Group_192">
<g id="Group_193">
<g id="Group_194">
<g id="Group_195">
<g id="Group_196">
<g id="Group_197">
<g id="Group_198">
<g id="Group_199">
<g id="Group_200">
<g id="Group_201">
<path id="Vector_77" d="M245.523 151.748C245.711 151.938 246.818 151.085 248.412 151.059C250.004 151.01 251.19 151.807 251.359 151.608C251.443 151.521 251.25 151.175 250.732 150.815C250.223 150.455 249.361 150.112 248.368 150.136C247.375 150.161 246.547 150.542 246.074 150.926C245.593 151.311 245.432 151.664 245.523 151.748Z" fill="#263238"/>
</g>
</g>
</g>
</g>
</g>
</g>
</g>
</g>
</g>
</g>
</g>
</g>
<g id="Group_202">
<g id="Group_203">
<g id="Group_204">
<g id="Group_205">
<g id="Group_206">
<g id="Group_207">
<g id="Group_208">
<g id="Group_209">
<g id="Group_210">
<g id="Group_211">
<g id="Group_212">
<path id="Vector_78" d="M239.966 163.684C239.972 163.593 238.978 163.441 237.368 163.267C236.96 163.234 236.574 163.16 236.499 162.884C236.397 162.591 236.56 162.15 236.747 161.672C237.111 160.68 237.492 159.639 237.891 158.549C239.478 154.103 240.618 150.45 240.439 150.388C240.259 150.326 238.827 153.879 237.241 158.325C236.86 159.421 236.495 160.467 236.148 161.466C236.003 161.932 235.748 162.461 235.968 163.067C236.084 163.369 236.387 163.584 236.648 163.649C236.911 163.724 237.14 163.724 237.342 163.732C238.959 163.786 239.962 163.774 239.966 163.684Z" fill="#263238"/>
</g>
</g>
</g>
</g>
</g>
</g>
</g>
</g>
</g>
</g>
</g>
<g id="Group_213">
<g id="Group_214">
<g id="Group_215">
<g id="Group_216">
<g id="Group_217">
<g id="Group_218">
<g id="Group_219">
<path id="Vector_79" d="M244.022 145.64C244.239 146.041 245.598 145.575 247.279 145.488C248.958 145.364 250.382 145.654 250.528 145.23C250.59 145.029 250.284 144.672 249.672 144.359C249.064 144.048 248.145 143.815 247.137 143.877C246.13 143.941 245.261 144.286 244.715 144.672C244.165 145.058 243.924 145.45 244.022 145.64Z" fill="#263238"/>
</g>
</g>
</g>
</g>
</g>
</g>
</g>
<g id="Group_220">
<g id="Group_221">
<g id="Group_222">
<g id="Group_223">
<g id="Group_224">
<g id="Group_225">
<g id="Group_226">
<path id="Vector_80" d="M229.642 145.182C229.985 145.538 231.293 145.136 232.876 145.088C234.456 144.993 235.803 145.275 236.103 144.89C236.235 144.704 236.017 144.345 235.425 144.014C234.842 143.684 233.871 143.423 232.784 143.472C231.698 143.522 230.761 143.868 230.219 144.25C229.667 144.631 229.49 145.008 229.642 145.182Z" fill="#263238"/>
</g>
</g>
</g>
</g>
</g>
</g>
</g>
<g id="Group_227">
<g id="Group_228">
<g id="Group_229">
<g id="Group_230">
<g id="Group_231">
<g id="Group_232">
<path id="Vector_81" d="M228.424 141.944C228.424 141.944 231.034 135.394 234.138 133.817C237.895 131.908 239.609 136.039 243.203 134.959C246.798 133.88 250.385 132.048 254.133 134.771C258.235 137.751 256.382 139.932 256.721 144.531C258.095 163.175 261.605 168.386 262.405 159.577C262.493 158.612 265.151 157.794 265.468 153.717C265.879 148.431 265.958 142.02 264.707 138.299C263.654 135.161 261.812 133.016 258.539 130.675C253.372 126.978 246.373 127.033 241.631 127.603C236.888 128.173 227.833 133.818 228.424 141.944Z" fill="#263238"/>
</g>
</g>
</g>
</g>
</g>
</g>
<g id="Group_233">
<g id="Group_234">
<g id="Group_235">
<g id="Group_236">
<g id="Group_237">
<g id="Group_238">
<path id="Vector_82" d="M261.737 159.306C261.771 157.704 263.127 156.413 264.725 156.534C266.664 156.68 268.838 157.738 268.788 161.738C268.698 168.835 261.591 167.281 261.582 167.078C261.576 166.94 261.674 162.276 261.737 159.306Z" fill="#AE7461"/>
</g>
</g>
</g>
</g>
</g>
</g>
<g id="Group_239">
<g id="Group_240">
<g id="Group_241">
<g id="Group_242">
<g id="Group_243">
<g id="Group_244">
<path id="Vector_83" d="M263.16 164.427C263.191 164.405 263.283 164.516 263.49 164.614C263.692 164.709 264.042 164.779 264.413 164.644C265.167 164.378 265.813 163.196 265.863 161.917C265.889 161.272 265.761 160.655 265.539 160.143C265.329 159.62 264.998 159.254 264.621 159.182C264.247 159.091 263.977 159.313 263.887 159.511C263.79 159.709 263.833 159.851 263.795 159.863C263.775 159.88 263.644 159.742 263.705 159.449C263.736 159.309 263.822 159.142 263.989 159.008C264.161 158.872 264.412 158.805 264.675 158.836C265.222 158.881 265.708 159.39 265.953 159.952C266.227 160.518 266.385 161.21 266.356 161.936C266.293 163.366 265.544 164.694 264.514 164.978C264.014 165.102 263.599 164.946 263.386 164.776C263.17 164.599 263.135 164.441 263.16 164.427Z" fill="#6F4439"/>
</g>
</g>
</g>
</g>
</g>
</g>
</g>
<g id="Group_245">
<g id="Group_246">
<g id="Group_247">
<g id="Group_248">
<g id="Group_249">
<path id="Vector_84" d="M261.332 145.567C260.424 146.213 259.463 146.882 258.355 147.012C257.247 147.144 255.966 146.531 255.757 145.435C255.663 144.942 255.773 144.367 255.441 143.992C255.045 143.544 254.333 143.701 253.739 143.775C251.681 144.034 249.228 141.803 248.664 139.807C248.154 140.605 247.006 140.865 246.2 140.367C245.394 139.869 245.098 139.582 244.462 138.881C243.825 138.18 242.938 137.559 242.003 137.71C241.48 137.794 240.995 138.117 240.468 138.08C239.534 138.015 239.058 136.933 238.9 136.011C238.741 135.089 238.61 134.013 237.812 133.525C237.072 133.074 236.129 133.361 235.274 133.504C234.419 133.647 233.308 133.468 233.072 132.633C232.948 132.196 233.128 131.729 233.365 131.341C234.435 129.581 236.828 128.761 238.754 129.497C239.402 127.14 241.559 125.273 243.985 124.97C246.411 124.666 248.961 125.944 250.17 128.069C251.643 126.68 253.811 126.067 255.792 126.479C257.775 126.89 259.518 128.316 260.316 130.177C262.032 129.689 264.012 130.319 265.132 131.707C266.253 133.096 266.449 135.164 265.609 136.738C266.898 137.441 268.014 138.687 268.069 140.155C268.125 141.622 266.722 143.113 265.298 142.754C265.893 143.886 265.457 145.446 264.362 146.106C263.267 146.767 261.684 146.423 260.96 145.369" fill="#263238"/>
</g>
</g>
</g>
</g>
</g>
<g id="Group_250">
<g id="Group_251">
<g id="Group_252">
<g id="Group_253">
<g id="Group_254">
<g id="Group_255">
<path id="Vector_85" d="M238.268 131.596C238.262 131.596 238.264 131.64 238.273 131.725C238.284 131.811 238.291 131.94 238.325 132.103C238.396 132.43 238.538 132.912 238.867 133.46C239.198 133.999 239.706 134.62 240.472 135.106C241.223 135.598 242.247 135.963 243.393 135.878L243.27 135.724C243.062 136.335 243.136 137.062 243.45 137.679C243.749 138.308 244.211 138.861 244.698 139.4C244.947 139.658 245.165 139.964 245.507 140.199C245.84 140.425 246.236 140.551 246.639 140.594C247.441 140.681 248.339 140.416 248.906 139.732L248.639 139.661C248.847 141.067 249.676 142.463 250.967 143.298C251.651 143.773 252.491 144.054 253.311 144.017C254.132 143.993 254.891 143.737 255.596 143.468L255.405 143.388C255.804 144.262 256.403 145.003 257.126 145.544C257.835 146.085 258.772 146.392 259.61 146.169C261.277 145.783 262.361 144.369 262.559 143.053L262.4 143.132C263.239 143.568 264.132 143.594 264.844 143.442C265.567 143.296 266.13 142.97 266.529 142.651C266.931 142.326 267.165 141.997 267.305 141.769C267.433 141.533 267.485 141.402 267.478 141.398C267.442 141.369 267.253 141.942 266.456 142.556C266.058 142.851 265.506 143.149 264.811 143.273C264.124 143.404 263.279 143.359 262.504 142.94L262.369 142.867L262.344 143.018C262.143 144.246 261.099 145.565 259.552 145.906C258.792 146.1 257.969 145.824 257.296 145.313C256.621 144.802 256.049 144.089 255.679 143.267L255.62 143.137L255.488 143.187C254.792 143.449 254.06 143.689 253.301 143.709C252.543 143.74 251.789 143.49 251.137 143.04C249.918 142.25 249.14 140.944 248.936 139.613L248.885 139.279L248.669 139.543C248.191 140.129 247.387 140.381 246.667 140.304C246.305 140.268 245.954 140.157 245.664 139.962C245.381 139.776 245.154 139.474 244.901 139.214C244.413 138.684 243.965 138.152 243.681 137.568C243.383 136.99 243.315 136.352 243.492 135.799L243.547 135.628L243.369 135.644C242.289 135.738 241.303 135.409 240.57 134.948C239.821 134.494 239.314 133.906 238.976 133.391C238.312 132.33 238.318 131.578 238.268 131.596Z" fill="#455A64"/>
</g>
</g>
</g>
</g>
</g>
</g>
</g>
</g>
</g>
<g id="Group_256">
<g id="Group_257">
<g id="Group_258">
<g id="Group_259">
<g id="Group_260">
<g id="Group_261">
<g id="Group_262">
<g id="Group_263">
<g id="Group_264">
<g id="Group_265">
<g id="Group_266">
<g id="Group_267">
<g id="Group_268">
<path id="Vector_86" d="M240.42 169.132C240.455 168.867 242.207 169.197 243.735 167.936C245.268 166.678 245.428 164.773 245.675 164.806C245.79 164.803 245.936 165.287 245.807 166.079C245.686 166.857 245.222 167.939 244.287 168.711C243.35 169.48 242.258 169.678 241.528 169.601C240.783 169.528 240.387 169.25 240.42 169.132Z" fill="#263238"/>
</g>
</g>
</g>
</g>
</g>
</g>
</g>
</g>
</g>
</g>
</g>
</g>
</g>
</g>
<g id="Group_269">
<path id="Vector_87" d="M189.86 269.565L203.369 254.665L214.666 220.524C216.972 214.601 218.952 207.081 221.746 201.464C223.121 198.702 225.437 196.524 228.256 195.271L233.053 193.141L235.921 188.563C234.269 198.917 248.78 200.192 264.203 187.337C264.203 187.337 269.298 190.784 276.48 196.74C279.624 199.348 282.475 202.197 283.663 206.501C285.821 214.315 276.548 237.44 266.452 259.196C263.432 265.703 249.047 294.863 249.047 294.863L243.87 298.636C243.87 298.636 198.095 284.767 193.977 277.166C189.86 269.565 189.86 269.565 189.86 269.565Z" fill="#E0E0E0"/>
<g id="Group_270">
<path id="Vector_88" d="M197.354 260.681C197.344 260.67 197.475 260.517 197.737 260.234C198.034 259.922 198.42 259.516 198.9 259.011C199.963 257.923 201.44 256.412 203.256 254.553L203.217 254.615C204.063 252.013 205.074 248.904 206.199 245.441C207.362 241.975 208.542 238.126 209.733 234.058C212.04 226.08 214.224 218.865 216.241 213.795C217.219 211.251 218.137 209.243 218.782 207.862C219.107 207.215 219.368 206.694 219.568 206.294C219.753 205.938 219.856 205.754 219.87 205.761C219.884 205.768 219.809 205.965 219.652 206.334C219.471 206.742 219.237 207.274 218.944 207.936C218.351 209.337 217.48 211.358 216.544 213.91C214.61 218.995 212.482 226.203 210.172 234.187C208.981 238.254 207.783 242.118 206.598 245.573C205.436 249.023 204.392 252.122 203.519 254.715L203.506 254.752L203.48 254.778C201.621 256.594 200.11 258.072 199.022 259.134C198.517 259.614 198.112 260.001 197.799 260.298C197.518 260.56 197.365 260.692 197.354 260.681Z" fill="#263238"/>
</g>
<g id="Group_271">
<g id="Group_272">
<path id="Vector_89" d="M239.381 203.822L223.549 268.725L207.105 276.902V261.026L235.561 202.411L239.381 203.822Z" fill="#5B71C8"/>
</g>
</g>
<g id="Group_273" opacity="0.3">
<path id="Vector_90" d="M209.101 262.881C213.589 264.57 217.632 267.242 221.597 269.941C225.561 272.64 229.524 275.407 233.923 277.318C238.322 279.23 243.251 280.248 247.947 279.28C252.645 278.311 257.031 275.103 258.579 270.564L209.101 262.881Z" fill="black"/>
</g>
<path id="Vector_91" d="M233.054 192.939L237.1 186.743L238.689 195.233L242.721 190.67L262.73 181.31L266.203 188.748L244.095 201.821L237.964 201.364L233.494 196.059L233.054 192.939Z" fill="#E0E0E0"/>
<g id="Group_274">
<path id="Vector_92" d="M233.054 192.94C233.106 192.934 233.193 193.412 233.357 194.22C233.558 195.188 233.784 196.281 234.035 197.492L233.635 197.432C233.978 196.804 234.344 196.135 234.725 195.439C235.329 194.37 235.895 193.367 236.41 192.455L236.626 192.072L236.77 192.48C237.124 193.491 237.313 194.345 237.473 194.937C237.623 195.531 237.717 195.869 237.676 195.885C237.638 195.901 237.468 195.586 237.252 195.007C237.027 194.433 236.778 193.584 236.4 192.623L236.759 192.647C236.26 193.568 235.711 194.581 235.126 195.66C234.738 196.353 234.365 197.017 234.014 197.641L233.727 198.153L233.614 197.582C233.081 194.903 232.945 192.949 233.054 192.94Z" fill="#263238"/>
</g>
<path id="Vector_93" d="M239.787 196.069L237.24 195.758C236.55 196.534 234.862 198.131 234.172 198.907L234.178 198.978C234.479 200.677 234.781 202.375 235.082 204.074C236.505 204.004 237.938 204.119 239.332 204.415C240.182 202.924 240.824 201.799 241.674 200.307L239.787 196.069Z" fill="#5B71C8"/>
<g id="Group_275">
<path id="Vector_94" d="M244.135 291.803C244.082 291.849 243.334 291.051 242.08 289.812C240.828 288.573 239.046 286.914 236.951 285.232C234.853 283.555 232.845 282.178 231.362 281.226C229.88 280.273 228.938 279.718 228.971 279.656C228.986 279.628 229.239 279.735 229.685 279.952C230.132 280.166 230.764 280.506 231.53 280.95C233.065 281.837 235.121 283.183 237.237 284.876C239.349 286.571 241.112 288.283 242.312 289.587C242.914 290.239 243.383 290.781 243.69 291.17C243.999 291.558 244.159 291.782 244.135 291.803Z" fill="#263238"/>
</g>
<path id="Vector_95" d="M239.986 196.592L242.813 195.2L243.772 200.15L241.417 200.359L239.986 196.592Z" fill="#5B71C8"/>
<path id="Vector_96" opacity="0.3" d="M242.428 193.206V204.417L263.27 190.65L243.874 201.943L242.428 193.206Z" fill="black"/>
<g id="Group_276">
<path id="Vector_97" d="M266.203 188.748C266.22 188.774 265.789 189.098 264.991 189.663C264.186 190.216 263.008 190.997 261.51 191.897C258.532 193.728 254.259 195.968 249.653 198.615C247.707 199.744 245.87 200.879 244.217 201.999L243.944 202.185L243.884 201.862C243.252 198.439 242.703 195.469 242.29 193.233L242.525 193.307C241.623 194.147 240.889 194.832 240.325 195.357C239.809 195.827 239.523 196.07 239.504 196.051C239.486 196.032 239.737 195.752 240.22 195.249C240.76 194.701 241.464 193.985 242.329 193.106L242.512 192.921L242.564 193.18C243.016 195.408 243.615 198.369 244.306 201.781L243.972 201.644C245.627 200.502 247.47 199.353 249.422 198.22C254.046 195.565 258.334 193.373 261.345 191.62C262.858 190.757 264.059 190.02 264.893 189.514C265.72 188.996 266.185 188.722 266.203 188.748Z" fill="#263238"/>
</g>
<path id="Vector_98" d="M237.271 196.707L236.102 193.844L234.173 197.389L234.999 198.673L237.271 196.707Z" fill="#5B71C8"/>
<g id="Group_277">
<path id="Vector_99" d="M240.467 196.292C240.565 196.383 239.17 197.996 237.67 200.144C236.162 202.286 235.121 204.147 235.003 204.086C234.896 204.036 235.766 202.055 237.296 199.881C238.818 197.702 240.382 196.208 240.467 196.292Z" fill="#263238"/>
</g>
<g id="Group_278">
<path id="Vector_100" d="M239.051 204.501C239.019 204.626 238.063 204.482 236.894 204.287C235.726 204.088 234.775 203.911 234.785 203.783C234.794 203.659 235.779 203.634 236.97 203.836C238.161 204.035 239.083 204.381 239.051 204.501Z" fill="#263238"/>
</g>
</g>
<g id="Group_279">
<g id="Group_280">
<path id="Vector_101" d="M133.987 244.87L120.798 207.591C120.546 206.788 121.038 205.941 121.86 205.762L152.327 197.803C153.087 197.636 153.851 198.07 154.095 198.81L167.957 240.804L210.95 269.043L208.884 271.152L197.885 268.472L133.987 244.87Z" fill="#455A64"/>
<g id="Group_281">
<path id="Vector_102" d="M208.885 271.152C208.881 271.158 208.805 271.117 208.663 271.03C208.5 270.927 208.293 270.796 208.036 270.633C207.463 270.258 206.664 269.736 205.65 269.072C203.561 267.681 200.587 265.7 196.924 263.261C189.556 258.302 179.423 251.481 168.23 243.947C167.45 243.42 166.675 242.896 165.953 242.408L165.889 242.364L165.865 242.291C161.815 230.074 158.188 219.13 155.561 211.202C154.28 207.27 153.243 204.089 152.515 201.854C152.173 200.775 151.905 199.926 151.71 199.315C151.63 199.044 151.564 198.826 151.512 198.652C151.47 198.502 151.451 198.424 151.458 198.422C151.466 198.419 151.498 198.493 151.554 198.638C151.617 198.807 151.696 199.022 151.794 199.287C152.006 199.892 152.301 200.732 152.676 201.8C153.437 204.023 154.519 207.19 155.857 211.103C158.519 219.019 162.194 229.947 166.296 242.147L166.207 242.03C166.93 242.519 167.704 243.042 168.485 243.57C179.648 251.147 189.755 258.007 197.104 262.994C200.733 265.484 203.679 267.506 205.75 268.925C206.744 269.619 207.526 270.165 208.087 270.558C208.334 270.736 208.532 270.879 208.688 270.991C208.824 271.09 208.889 271.145 208.885 271.152Z" fill="#263238"/>
</g>
<g id="Group_282">
<path id="Vector_103" d="M139.246 244.075C139.239 243.948 145.231 243.563 152.626 243.213C160.024 242.864 166.025 242.683 166.03 242.808C166.036 242.935 160.045 243.32 152.647 243.67C145.253 244.019 139.252 244.2 139.246 244.075Z" fill="#263238"/>
</g>
</g>
<path id="Vector_104" d="M144.103 222.795C144.634 224.487 144.335 226.085 143.436 226.368C142.537 226.651 141.378 225.509 140.847 223.817C140.316 222.126 140.614 220.528 141.514 220.245C142.413 219.963 143.572 221.104 144.103 222.795Z" fill="#E0E0E0"/>
</g>
<g id="Group_283">
<g id="Group_284">
<path id="Vector_105" d="M181.644 236.089C181.644 236.089 180.506 236.655 180.329 234.84C180.172 233.229 184.036 230.846 185.482 229.952C186.928 229.057 189.978 229.673 191.534 229.875C193.636 230.148 198.533 232.34 200.089 234.208C201.671 236.105 202.755 240.958 203.33 241.417C203.905 241.876 223.372 249.535 223.372 249.535L218.941 264.956C218.941 264.956 201.071 257.068 197.905 253.896C194.739 250.724 195.438 249.914 194.885 247.51C194.333 245.107 193.733 242.552 193.733 242.552L192.051 241.857L188.887 242.756C188.887 242.756 188.501 243.958 187.685 244.896C186.711 246.018 184.947 245.968 183.967 244.852C183.967 244.852 182.362 245.411 181.578 243.598C181.258 242.855 181.489 241.725 181.489 241.725C181.489 241.725 180.05 242.008 180.038 240.215C180.027 238.29 181.644 236.089 181.644 236.089Z" fill="#AE7461"/>
<g id="Group_285">
<path id="Vector_106" d="M191.781 238.13C191.778 238.205 191.127 238.182 190.126 238.401C189.132 238.613 187.778 239.133 186.613 240.158C185.449 241.184 184.763 242.463 184.427 243.422C184.084 244.388 184.025 245.037 183.951 245.03C183.901 245.03 183.842 244.361 184.119 243.326C184.388 242.3 185.068 240.911 186.311 239.816C187.554 238.721 189.017 238.22 190.068 238.083C191.131 237.938 191.788 238.081 191.781 238.13Z" fill="#6F4439"/>
</g>
<g id="Group_286">
<path id="Vector_107" d="M190.325 234.822C190.317 234.904 189.617 234.786 188.545 235.035C187.478 235.27 186.075 235.957 184.877 237.133C183.679 238.315 182.864 239.64 182.272 240.587C181.686 241.542 181.316 242.136 181.258 242.104C181.205 242.075 181.471 241.431 181.991 240.426C182.516 239.433 183.303 238.044 184.558 236.806C185.818 235.567 187.34 234.88 188.484 234.718C189.637 234.539 190.341 234.781 190.325 234.822Z" fill="#6F4439"/>
</g>
<g id="Group_287">
<path id="Vector_108" d="M190.042 231.206C190.033 231.282 189.429 231.2 188.493 231.373C187.559 231.534 186.311 232.017 185.139 232.877C183.964 233.741 183.059 234.733 182.397 235.44C181.739 236.154 181.319 236.592 181.269 236.55C181.223 236.512 181.551 236.004 182.152 235.231C182.756 234.465 183.642 233.411 184.869 232.509C186.099 231.604 187.451 231.138 188.448 231.053C189.451 230.956 190.055 231.158 190.042 231.206Z" fill="#6F4439"/>
</g>
</g>
<g id="Group_288">
<g id="Group_289">
<path id="Vector_109" d="M273.122 196.183C278.595 197.253 282.158 202.061 283.271 208.075C284.851 216.604 265.297 256.914 261.654 265.715C257.815 274.986 249.323 277.013 244.378 276.898C239.433 276.784 204.782 260.531 204.782 260.531L209.862 242.946L240.652 252.087L252.854 217.757" fill="#E0E0E0"/>
<g id="Group_290">
<path id="Vector_110" d="M252.855 217.758C252.855 217.758 252.797 217.969 252.662 218.371C252.52 218.787 252.317 219.381 252.054 220.154C251.503 221.734 250.701 224.036 249.669 226.997C247.573 232.948 244.548 241.534 240.811 252.143L240.758 252.292L240.606 252.247C231.758 249.632 221.299 246.543 209.804 243.146L210.064 243.004C208.444 248.627 206.75 254.509 204.997 260.592L204.878 260.331C212.965 264.086 221.621 268.026 230.645 271.824C234.309 273.343 237.941 274.858 241.609 276.027L242.989 276.423C243.449 276.542 243.904 276.582 244.361 276.668C245.306 276.683 246.254 276.638 247.186 276.51C249.056 276.28 250.869 275.747 252.554 274.989C255.928 273.468 258.72 270.871 260.417 267.735C261.278 266.185 261.909 264.505 262.64 262.897C263.363 261.289 264.078 259.699 264.784 258.129C270.472 245.592 275.516 234.258 279.132 224.499C280.912 219.62 282.454 215.141 283.081 211.068C283.212 210.052 283.294 209.055 283.156 208.125C282.974 207.188 282.765 206.29 282.481 205.457C281.934 203.782 281.203 202.331 280.376 201.143C278.718 198.744 276.713 197.519 275.33 196.917C274.629 196.619 274.072 196.436 273.691 196.346C273.312 196.246 273.12 196.183 273.12 196.183C273.12 196.183 273.318 196.215 273.703 196.301C274.089 196.376 274.654 196.544 275.366 196.832C276.772 197.411 278.819 198.627 280.521 201.04C281.368 202.235 282.121 203.699 282.686 205.388C282.98 206.23 283.197 207.135 283.388 208.083C283.54 209.06 283.46 210.071 283.333 211.103C282.722 215.225 281.197 219.714 279.434 224.611C275.85 234.4 270.834 245.754 265.166 258.302C264.463 259.872 263.751 261.462 263.031 263.07C262.304 264.671 261.682 266.344 260.795 267.947C259.064 271.158 256.194 273.836 252.737 275.396C251.01 276.175 249.155 276.72 247.242 276.958C246.287 277.089 245.319 277.136 244.346 277.121C243.859 277.035 243.35 276.986 242.878 276.863L241.473 276.46C237.765 275.28 234.138 273.768 230.466 272.244C221.431 268.443 212.776 264.497 204.687 260.731L204.515 260.651L204.568 260.469C206.329 254.387 208.032 248.508 209.66 242.887L209.718 242.685L209.92 242.745C221.406 246.172 231.855 249.289 240.698 251.927L240.493 252.031C244.29 241.443 247.363 232.873 249.492 226.935C250.56 223.987 251.391 221.694 251.961 220.122C252.244 219.355 252.461 218.767 252.614 218.354C252.766 217.958 252.855 217.758 252.855 217.758Z" fill="#263238"/>
</g>
</g>
<g id="Group_291">
<path id="Vector_111" d="M245.567 264.986C245.425 265.012 244.954 261.924 243.581 258.358C242.233 254.782 240.53 252.164 240.652 252.089C240.7 252.057 241.186 252.672 241.846 253.752C242.507 254.83 243.318 256.388 244.008 258.196C244.695 260.004 245.126 261.707 245.351 262.951C245.579 264.195 245.624 264.978 245.567 264.986Z" fill="#263238"/>
</g>
<g id="Group_292">
<path id="Vector_112" d="M270.991 196.259C271.019 196.339 269.858 196.712 268.118 197.592C267.245 198.025 266.245 198.618 265.182 199.342C264.132 200.084 263.026 200.969 261.959 202.001C260.902 203.044 259.993 204.13 259.226 205.163C258.477 206.208 257.862 207.193 257.408 208.057C256.488 209.777 256.088 210.928 256.009 210.899C255.979 210.888 256.058 210.595 256.229 210.07C256.39 209.542 256.691 208.799 257.12 207.909C257.543 207.015 258.139 205.995 258.883 204.917C259.644 203.852 260.562 202.737 261.639 201.673C262.726 200.622 263.863 199.73 264.945 198.994C266.039 198.276 267.073 197.702 267.976 197.3C268.876 196.892 269.625 196.608 270.157 196.459C270.687 196.301 270.982 196.228 270.991 196.259Z" fill="#263238"/>
</g>
</g>
</g>
<g id="Group_293">
<path id="Vector_113" d="M78.8803 322.726L62.2405 301.93C62.2405 301.93 126.609 248.901 132.695 245.113C137.303 242.245 146.671 238.436 155.539 241.416C164.407 244.396 179.419 254.768 184.953 258.132C190.487 261.497 238.663 291.337 243.871 298.636C243.871 298.636 233.388 317.598 226.524 320.778C221.148 323.268 205.649 319.55 196.595 314.045C187.539 308.54 145.994 272.96 145.994 272.96L78.8803 322.726Z" fill="#263238"/>
<path id="Vector_114" d="M85.0801 347.104L107.56 363.252L150.822 292.751L194.503 312.654L165.131 263.58C165.131 263.58 141.442 263.858 137.719 263.44C132.942 262.902 124.222 270.442 119.462 279.646C115.325 287.645 85.0801 347.104 85.0801 347.104Z" fill="#263238"/>
<g id="Group_294">
<path id="Vector_115" d="M180.363 306.843C180.273 306.931 170.408 296.867 158.333 284.368C146.255 271.864 136.54 261.66 136.63 261.572C136.72 261.485 146.583 271.546 158.662 284.05C170.737 296.549 180.455 306.756 180.363 306.843Z" fill="#455A64"/>
</g>
<path id="Vector_116" opacity="0.3" d="M97.71 308.763C97.71 308.763 117.066 272.585 126.183 270.177C126.183 270.177 112.994 288.05 108.58 300.703L97.71 308.763Z" fill="black"/>
<g id="Group_295">
<path id="Vector_117" d="M140.751 265.856C140.735 265.917 139.873 265.509 138.21 265.37C136.562 265.21 134.085 265.495 131.412 266.816C128.723 268.109 126.076 270.592 123.746 273.769C121.429 276.966 119.103 280.662 116.878 284.645C112.487 292.664 109.1 300.239 106.399 305.597C105.071 308.288 103.936 310.435 103.142 311.914C102.749 312.616 102.435 313.177 102.198 313.6C101.977 313.983 101.854 314.18 101.84 314.172C101.826 314.164 101.922 313.953 102.116 313.556C102.334 313.123 102.623 312.549 102.984 311.831C103.729 310.329 104.818 308.162 106.107 305.455C108.732 300.066 112.071 292.471 116.476 284.424C118.714 280.419 121.052 276.728 123.407 273.517C125.775 270.323 128.502 267.809 131.269 266.527C134.014 265.216 136.554 264.975 138.225 265.194C139.914 265.391 140.751 265.856 140.751 265.856Z" fill="#455A64"/>
</g>
<g id="Group_296">
<g id="Group_297">
<g id="Group_298">
<g id="Group_299">
<g id="Group_300">
<g id="Group_301">
<g id="Group_302">
<g id="Group_303">
<g id="Group_304">
<g id="Group_305">
<g id="Group_306">
<g id="Group_307">
<g id="Group_308">
<g id="Group_309">
<g id="Group_310">
<g id="Group_311">
<g id="Group_312">
<path id="Vector_118" d="M96.112 334.007L83.798 356.7C83.798 356.7 56.3456 353.456 53.9065 357.584L98.515 380.391L117.029 344.63L96.112 334.007Z" fill="#263238"/>
</g>
</g>
</g>
</g>
</g>
</g>
</g>
</g>
</g>
</g>
</g>
</g>
</g>
</g>
</g>
<g id="Group_313">
<g id="Group_314">
<g id="Group_315">
<g id="Group_316">
<g id="Group_317">
<g id="Group_318">
<g id="Group_319">
<g id="Group_320">
<g id="Group_321">
<g id="Group_322">
<g id="Group_323">
<g id="Group_324">
<g id="Group_325">
<g id="Group_326">
<g id="Group_327">
<g id="Group_328">
<path id="Vector_119" d="M98.5801 361.819C100.397 363.46 97.9743 366.356 96.0796 364.761C94.0567 362.935 96.9453 359.989 98.7171 361.96" fill="#E0E0E0"/>
</g>
</g>
</g>
</g>
</g>
</g>
</g>
</g>
</g>
</g>
</g>
</g>
</g>
</g>
</g>
</g>
<g id="Group_329">
<g id="Group_330">
<g id="Group_331">
<g id="Group_332">
<g id="Group_333">
<g id="Group_334">
<g id="Group_335">
<g id="Group_336">
<g id="Group_337">
<g id="Group_338">
<g id="Group_339">
<g id="Group_340">
<g id="Group_341">
<g id="Group_342">
<g id="Group_343">
<path id="Vector_120" d="M98.515 380.391L100.24 376.713L56.825 356.221C56.825 356.221 54.3973 356.07 53.9065 357.584L98.515 380.391Z" fill="#455A64"/>
</g>
</g>
</g>
</g>
</g>
</g>
</g>
</g>
</g>
</g>
</g>
</g>
</g>
</g>
</g>
<g id="Group_344">
<g id="Group_345">
<g id="Group_346">
<g id="Group_347">
<g id="Group_348">
<g id="Group_349">
<g id="Group_350">
<g id="Group_351">
<g id="Group_352">
<g id="Group_353">
<g id="Group_354">
<g id="Group_355">
<g id="Group_356">
<g id="Group_357">
<g id="Group_358">
<g id="Group_359">
<path id="Vector_121" d="M83.1914 356.103C83.0869 356.324 84.1256 356.98 84.8394 358.228C85.5857 359.458 85.6559 360.684 85.9 360.701C87.1459 359.944 84.4504 355.377 83.1914 356.103Z" fill="white"/>
</g>
</g>
</g>
</g>
</g>
</g>
</g>
</g>
</g>
</g>
</g>
</g>
</g>
</g>
</g>
</g>
<g id="Group_360">
<g id="Group_361">
<g id="Group_362">
<g id="Group_363">
<g id="Group_364">
<g id="Group_365">
<g id="Group_366">
<g id="Group_367">
<g id="Group_368">
<g id="Group_369">
<g id="Group_370">
<g id="Group_371">
<g id="Group_372">
<g id="Group_373">
<g id="Group_374">
<g id="Group_375">
<path id="Vector_122" d="M77.523 355.646C77.365 355.832 78.1192 356.685 78.3878 357.984C78.6943 359.276 78.372 360.367 78.5942 360.468C80.0244 360.176 78.9375 355.303 77.523 355.646Z" fill="white"/>
</g>
</g>
</g>
</g>
</g>
</g>
</g>
</g>
</g>
</g>
</g>
</g>
</g>
</g>
</g>
</g>
<g id="Group_376">
<g id="Group_377">
<g id="Group_378">
<g id="Group_379">
<g id="Group_380">
<g id="Group_381">
<g id="Group_382">
<g id="Group_383">
<g id="Group_384">
<g id="Group_385">
<g id="Group_386">
<g id="Group_387">
<g id="Group_388">
<g id="Group_389">
<g id="Group_390">
<g id="Group_391">
<path id="Vector_123" d="M72.0022 359.887C73.2051 360.042 73.3842 355.213 72.176 355.282C72.234 355.43 72.0672 359.748 72.0022 359.887Z" fill="white"/>
</g>
</g>
</g>
</g>
</g>
</g>
</g>
</g>
</g>
</g>
</g>
</g>
</g>
</g>
</g>
</g>
<g id="Group_392">
<g id="Group_393">
<g id="Group_394">
<g id="Group_395">
<g id="Group_396">
<g id="Group_397">
<g id="Group_398">
<g id="Group_399">
<g id="Group_400">
<g id="Group_401">
<g id="Group_402">
<g id="Group_403">
<g id="Group_404">
<g id="Group_405">
<g id="Group_406">
<g id="Group_407">
<path id="Vector_124" d="M86.2722 351.047C86.4294 351.039 90.6965 353.548 90.7623 353.679C91.4489 352.657 86.8245 349.948 86.2722 351.047Z" fill="white"/>
</g>
</g>
</g>
</g>
</g>
</g>
</g>
</g>
</g>
</g>
</g>
</g>
</g>
</g>
</g>
</g>
</g>
</g>
<g id="Group_408">
<g id="Group_409">
<g id="Group_410">
<g id="Group_411">
<g id="Group_412">
<g id="Group_413">
<g id="Group_414">
<g id="Group_415">
<g id="Group_416">
<g id="Group_417">
<g id="Group_418">
<g id="Group_419">
<g id="Group_420">
<g id="Group_421">
<g id="Group_422">
<g id="Group_423">
<g id="Group_424">
<path id="Vector_125" d="M79.3642 293.558L58.2632 308.435C58.2632 308.435 35.0972 293.353 31.0803 295.97L60.9464 336.196L92.5965 311.278L79.3642 293.558Z" fill="#263238"/>
</g>
</g>
</g>
</g>
</g>
</g>
</g>
</g>
</g>
</g>
</g>
</g>
</g>
</g>
</g>
<g id="Group_425">
<g id="Group_426">
<g id="Group_427">
<g id="Group_428">
<g id="Group_429">
<g id="Group_430">
<g id="Group_431">
<g id="Group_432">
<g id="Group_433">
<g id="Group_434">
<g id="Group_435">
<g id="Group_436">
<g id="Group_437">
<g id="Group_438">
<g id="Group_439">
<g id="Group_440">
<path id="Vector_126" d="M69.2418 319.579C70.1426 321.855 66.6868 323.376 65.6964 321.106C64.6929 318.573 68.5886 317.214 69.3024 319.766" fill="#E0E0E0"/>
</g>
</g>
</g>
</g>
</g>
</g>
</g>
</g>
</g>
</g>
</g>
</g>
</g>
</g>
</g>
</g>
<g id="Group_441">
<g id="Group_442">
<g id="Group_443">
<g id="Group_444">
<g id="Group_445">
<g id="Group_446">
<g id="Group_447">
<g id="Group_448">
<g id="Group_449">
<g id="Group_450">
<g id="Group_451">
<g id="Group_452">
<g id="Group_453">
<g id="Group_454">
<g id="Group_455">
<path id="Vector_127" d="M60.9464 336.196L64.1239 333.665L34.3 296.043C34.3 296.043 32.191 294.831 31.0803 295.97L60.9464 336.196Z" fill="#455A64"/>
</g>
</g>
</g>
</g>
</g>
</g>
</g>
</g>
</g>
</g>
</g>
</g>
</g>
</g>
</g>
<g id="Group_456">
<g id="Group_457">
<g id="Group_458">
<g id="Group_459">
<g id="Group_460">
<g id="Group_461">
<g id="Group_462">
<g id="Group_463">
<g id="Group_464">
<g id="Group_465">
<g id="Group_466">
<g id="Group_467">
<g id="Group_468">
<g id="Group_469">
<g id="Group_470">
<g id="Group_471">
<path id="Vector_128" d="M57.984 307.631C57.7926 307.783 58.4327 308.832 58.5187 310.267C58.6425 311.701 58.1614 312.83 58.373 312.953C59.8252 312.828 59.4345 307.539 57.984 307.631Z" fill="white"/>
</g>
</g>
</g>
</g>
</g>
</g>
</g>
</g>
</g>
</g>
</g>
</g>
</g>
</g>
</g>
</g>
<g id="Group_472">
<g id="Group_473">
<g id="Group_474">
<g id="Group_475">
<g id="Group_476">
<g id="Group_477">
<g id="Group_478">
<g id="Group_479">
<g id="Group_480">
<g id="Group_481">
<g id="Group_482">
<g id="Group_483">
<g id="Group_484">
<g id="Group_485">
<g id="Group_486">
<g id="Group_487">
<path id="Vector_129" d="M53.1067 304.708C52.8828 304.804 53.1804 305.902 52.845 307.187C52.5474 308.48 51.7739 309.316 51.9284 309.505C53.3393 309.876 54.5264 305.027 53.1067 304.708Z" fill="white"/>
</g>
</g>
</g>
</g>
</g>
</g>
</g>
</g>
</g>
</g>
</g>
</g>
</g>
</g>
</g>
</g>
<g id="Group_488">
<g id="Group_489">
<g id="Group_490">
<g id="Group_491">
<g id="Group_492">
<g id="Group_493">
<g id="Group_494">
<g id="Group_495">
<g id="Group_496">
<g id="Group_497">
<g id="Group_498">
<g id="Group_499">
<g id="Group_500">
<g id="Group_501">
<g id="Group_502">
<g id="Group_503">
<path id="Vector_130" d="M46.2776 306.06C47.2864 306.734 49.5885 302.484 48.4752 302.01C48.4612 302.168 46.397 305.964 46.2776 306.06Z" fill="white"/>
</g>
</g>
</g>
</g>
</g>
</g>
</g>
</g>
</g>
</g>
</g>
</g>
</g>
</g>
</g>
</g>
</g>
</g>
<path id="Vector_131" opacity="0.3" d="M177.059 303.423C177.059 303.423 152.458 284.695 146.592 277.477C140.805 270.355 137.719 263.44 137.719 263.44L177.059 303.423Z" fill="black"/>
</g>
</g>
</g>
</g>
</g>
</svg>
