<svg width="754" height="694" viewBox="0 0 754 694" fill="none" xmlns="http://www.w3.org/2000/svg">
<path d="M552.448 347.078C552.448 444.062 473.827 522.683 376.843 522.683C279.859 522.683 201.238 444.062 201.238 347.078C201.238 250.094 279.859 171.473 376.843 171.473C473.827 171.473 552.448 250.094 552.448 347.078ZM289.04 347.078C289.04 395.57 328.351 434.88 376.843 434.88C425.335 434.88 464.645 395.57 464.645 347.078C464.645 298.586 425.335 259.276 376.843 259.276C328.351 259.276 289.04 298.586 289.04 347.078Z" fill="#5B71C8"/>
<path d="M306.435 609.885C241.898 592.625 185.964 552.228 149.288 496.39C112.612 440.552 97.7556 373.175 107.549 307.091C117.342 241.007 151.101 180.833 202.395 138.032C253.689 95.2315 318.935 72.7931 385.704 74.9913L383.118 153.554C335.634 151.99 289.234 167.948 252.756 198.386C216.277 228.825 192.269 271.617 185.305 318.614C178.34 365.61 188.905 413.526 214.988 453.236C241.071 492.946 280.849 521.674 326.745 533.95L306.435 609.885Z" fill="#373737"/>
<path d="M477.789 599.674C518.006 583.593 553.804 558.145 582.207 525.445C610.611 492.745 630.798 453.738 641.093 411.666C651.387 369.594 651.491 325.673 641.395 283.553C631.3 241.433 611.296 202.331 583.048 169.497L523.461 220.762C543.55 244.112 557.776 271.92 564.955 301.874C572.135 331.829 572.061 363.064 564.74 392.984C557.419 422.904 543.063 450.644 522.863 473.899C502.664 497.154 477.206 515.252 448.605 526.688L477.789 599.674Z" fill="#373737"/>
</svg>
