<svg width="456" height="151" viewBox="0 0 456 151" fill="none" xmlns="http://www.w3.org/2000/svg">
<g id="Joobify logo mark">
<path id="OBIFY" d="M224.794 106.394C219.108 106.394 214.163 105.506 209.958 103.729C205.812 101.952 202.525 99.2871 200.097 95.7335C197.728 92.1208 196.454 87.6492 196.277 82.3189C196.217 79.8314 196.188 77.2847 196.188 74.6788C196.188 72.0136 196.217 69.378 196.277 66.7721C196.454 61.501 197.728 57.0591 200.097 53.4463C202.525 49.8335 205.842 47.1091 210.047 45.2731C214.252 43.3779 219.167 42.4303 224.794 42.4303C230.361 42.4303 235.247 43.3779 239.452 45.2731C243.657 47.1091 246.974 49.8335 249.402 53.4463C251.83 57.0591 253.104 61.501 253.222 66.7721C253.341 69.378 253.4 72.0136 253.4 74.6788C253.4 77.2847 253.341 79.8314 253.222 82.3189C253.045 87.6492 251.742 92.1208 249.313 95.7335C246.944 99.2871 243.657 101.952 239.452 103.729C235.306 105.506 230.42 106.394 224.794 106.394ZM224.794 91.2916C227.281 91.2916 229.325 90.5513 230.924 89.0706C232.523 87.5308 233.352 85.1025 233.411 81.7859C233.53 79.2391 233.589 76.7813 233.589 74.4122C233.589 71.984 233.53 69.5261 233.411 67.0386C233.352 64.8473 232.937 63.0409 232.168 61.6195C231.457 60.198 230.45 59.1616 229.147 58.5101C227.903 57.8586 226.452 57.5329 224.794 57.5329C223.136 57.5329 221.655 57.8586 220.352 58.5101C219.049 59.1616 218.013 60.198 217.243 61.6195C216.532 63.0409 216.147 64.8473 216.088 67.0386C216.028 69.5261 215.999 71.984 215.999 74.4122C215.999 76.7813 216.028 79.2391 216.088 81.7859C216.206 85.1025 217.035 87.5308 218.575 89.0706C220.174 90.5513 222.247 91.2916 224.794 91.2916ZM261.268 105.506C260.676 105.506 260.142 105.299 259.669 104.884C259.195 104.41 258.958 103.847 258.958 103.196V45.6285C258.958 44.977 259.195 44.444 259.669 44.0294C260.142 43.5556 260.676 43.3187 261.268 43.3187H289.607C294.997 43.3187 299.409 44.0294 302.844 45.4508C306.279 46.8722 308.826 48.9155 310.484 51.5807C312.143 54.2458 312.972 57.5329 312.972 61.4418C312.972 63.4555 312.557 65.2618 311.728 66.8609C310.958 68.4008 310.011 69.7038 308.885 70.7698C307.76 71.7767 306.694 72.517 305.687 72.9908C307.997 73.9977 310.011 75.7152 311.728 78.1435C313.446 80.5125 314.304 83.2369 314.304 86.3166C314.304 90.4624 313.357 93.9568 311.462 96.7996C309.626 99.6424 306.931 101.804 303.377 103.285C299.883 104.765 295.589 105.506 290.496 105.506H261.268ZM278.058 92.0911H288.452C290.466 92.0911 291.947 91.4989 292.894 90.3144C293.842 89.0706 294.316 87.7084 294.316 86.2278C294.316 84.6879 293.812 83.3553 292.806 82.23C291.799 81.0455 290.348 80.4533 288.452 80.4533H278.058V92.0911ZM278.058 67.394H287.564C289.459 67.394 290.851 66.8609 291.739 65.7949C292.628 64.7288 293.072 63.4851 293.072 62.0637C293.072 60.6422 292.628 59.3985 291.739 58.3324C290.851 57.2664 289.459 56.7333 287.564 56.7333H278.058V67.394ZM321.567 105.506C320.975 105.506 320.442 105.299 319.968 104.884C319.494 104.41 319.257 103.847 319.257 103.196V45.6285C319.257 44.977 319.494 44.444 319.968 44.0294C320.442 43.5556 320.975 43.3187 321.567 43.3187H336.67C337.321 43.3187 337.854 43.5556 338.269 44.0294C338.743 44.444 338.979 44.977 338.979 45.6285V103.196C338.979 103.847 338.743 104.41 338.269 104.884C337.854 105.299 337.321 105.506 336.67 105.506H321.567ZM348.725 105.506C348.133 105.506 347.6 105.299 347.126 104.884C346.652 104.41 346.416 103.847 346.416 103.196V45.6285C346.416 44.977 346.652 44.444 347.126 44.0294C347.6 43.5556 348.133 43.3187 348.725 43.3187H391.546C392.197 43.3187 392.76 43.5556 393.234 44.0294C393.707 44.444 393.944 44.977 393.944 45.6285V56.911C393.944 57.5033 393.707 58.0363 393.234 58.5101C392.76 58.9839 392.197 59.2208 391.546 59.2208H365.161V68.9931H389.769C390.42 68.9931 390.983 69.23 391.457 69.7038C391.931 70.1184 392.167 70.6514 392.167 71.3029V82.4966C392.167 83.148 391.931 83.7107 391.457 84.1845C390.983 84.5991 390.42 84.8064 389.769 84.8064H365.161V103.196C365.161 103.847 364.924 104.41 364.45 104.884C364.035 105.299 363.502 105.506 362.851 105.506H348.725ZM417.117 105.506C416.465 105.506 415.902 105.299 415.429 104.884C415.014 104.41 414.807 103.847 414.807 103.196V84.8952L394.552 46.0727C394.492 45.9542 394.433 45.8358 394.374 45.7173C394.315 45.5396 394.285 45.3916 394.285 45.2731C394.285 44.7401 394.463 44.2959 394.818 43.9406C395.233 43.526 395.706 43.3187 396.239 43.3187H410.098C411.164 43.3187 411.964 43.5852 412.497 44.1182C413.03 44.6513 413.385 45.0658 413.563 45.362L424.401 65.7949L435.24 45.362C435.358 45.0658 435.684 44.6513 436.217 44.1182C436.75 43.5852 437.55 43.3187 438.616 43.3187H452.563C453.037 43.3187 453.452 43.526 453.807 43.9406C454.222 44.2959 454.429 44.7401 454.429 45.2731C454.429 45.3916 454.399 45.5396 454.34 45.7173C454.34 45.8358 454.31 45.9542 454.251 46.0727L433.907 84.8952V103.196C433.907 103.847 433.67 104.41 433.196 104.884C432.782 105.299 432.249 105.506 431.597 105.506H417.117Z" fill="#5B71C8"/>
<path id="J" d="M28.6633 106.394C25.1097 106.394 21.7339 105.95 18.5357 105.062C15.3375 104.114 12.465 102.752 9.91831 100.975C7.43082 99.1982 5.44676 97.0069 3.96611 94.401C2.54469 91.795 1.80437 88.7745 1.74514 85.3394C1.74514 84.8064 1.92282 84.3622 2.27817 84.0068C2.63353 83.5922 3.07772 83.385 3.61075 83.385H18.7133C19.661 83.385 20.3421 83.5922 20.7566 84.0068C21.2304 84.4214 21.645 85.1025 22.0004 86.0501C22.415 87.2346 22.9184 88.2415 23.5106 89.0706C24.1621 89.8406 24.9617 90.4032 25.9093 90.7586C26.8569 91.1139 27.9526 91.2916 29.1963 91.2916C31.5061 91.2916 33.2829 90.5513 34.5266 89.0706C35.8296 87.59 36.4811 85.2506 36.4811 82.0524V58.9543H8.85224C8.20076 58.9543 7.63811 58.747 7.1643 58.3324C6.74972 57.8586 6.54243 57.296 6.54243 56.6445V45.6285C6.54243 44.977 6.74972 44.444 7.1643 44.0294C7.63811 43.5556 8.20076 43.3187 8.85224 43.3187H53.8935C54.545 43.3187 55.078 43.5556 55.4926 44.0294C55.9664 44.444 56.2033 44.977 56.2033 45.6285V82.6742C56.2033 87.9453 54.9892 92.3577 52.5609 95.9112C50.1919 99.4055 46.9048 102.041 42.6998 103.818C38.554 105.535 33.8752 106.394 28.6633 106.394Z" fill="#5B71C8"/>
<path id="Ellipse 48" d="M165.898 75.5203C165.898 96.712 148.718 113.891 127.527 113.891C106.335 113.891 89.1558 96.712 89.1558 75.5203C89.1558 54.3286 106.335 37.1493 127.527 37.1493C148.718 37.1493 165.898 54.3286 165.898 75.5203ZM108.341 75.5203C108.341 86.1161 116.931 94.7058 127.527 94.7058C138.123 94.7058 146.712 86.1161 146.712 75.5203C146.712 64.9244 138.123 56.3348 127.527 56.3348C116.931 56.3348 108.341 64.9244 108.341 75.5203Z" fill="#5B71C8"/>
<path id="Ellipse 49" d="M112.142 132.946C98.0401 129.174 85.8182 120.347 77.8042 108.146C69.7902 95.9451 66.5439 81.2226 68.6839 66.7828C70.8238 52.3429 78.2003 39.1947 89.4085 29.8423C100.617 20.49 114.873 15.5871 129.463 16.0674L128.898 33.2338C118.522 32.8922 108.383 36.379 100.413 43.03C92.4418 49.6811 87.1959 59.0316 85.6741 69.3006C84.1522 79.5697 86.4608 90.0398 92.1601 98.7166C97.8594 107.393 106.551 113.671 116.58 116.353L112.142 132.946Z" fill="#373737"/>
<path id="Ellipse 50" d="M149.584 130.714C158.372 127.201 166.194 121.64 172.4 114.495C178.606 107.35 183.018 98.8263 185.267 89.6333C187.516 80.4403 187.539 70.8431 185.333 61.6396C183.127 52.436 178.756 43.8919 172.584 36.7176L159.564 47.9194C163.953 53.0216 167.062 59.0978 168.63 65.643C170.199 72.1882 170.183 79.0133 168.583 85.551C166.984 92.0888 163.847 98.1502 159.433 103.232C155.019 108.313 149.457 112.267 143.207 114.766L149.584 130.714Z" fill="#373737"/>
</g>
</svg>
